<?xml version="1.0" encoding="utf-8"?>
<!-- Generator: Adobe Illustrator 23.1.0, SVG Export Plug-In . SVG Version: 6.00 Build 0)  -->
<svg version="1.1" id="圖層_1" xmlns="http://www.w3.org/2000/svg" xmlns:xlink="http://www.w3.org/1999/xlink" x="0px" y="0px"
	 viewBox="0 0 350 350" style="enable-background:new 0 0 350 350;" xml:space="preserve">
<style type="text/css">
	.st0{fill:#F5B857;}
	.st1{fill:#F5C8CB;}
	.st2{fill:#7093BB;}
	.st3{fill:#E77638;}
	.st4{fill:#0D1321;}
	.st5{fill:none;stroke:#F5B857;stroke-width:5;stroke-miterlimit:10;}
	.st6{fill:#F5B857;stroke:#FFFFFF;stroke-width:10;stroke-miterlimit:10;}
	.st7{fill:#F5C8CB;stroke:#FFFFFF;stroke-width:10;stroke-miterlimit:10;}
</style>
<g>
	<path class="st5" d="M318.11,338.11H31.89c-11.05,0-20-8.95-20-20V31.89c0-11.05,8.95-20,20-20h286.22c11.05,0,20,8.95,20,20
		v286.22C338.11,329.16,329.16,338.11,318.11,338.11z"/>
	<g>
		<g>
			<g>
				<path class="st6" d="M80.02,81.36l-39.98-4.14V60.96h89.88v16.27l-39.15,4.14H80.02z M172.38,60.96h35.57l37.5,139.23
					l-19.58,40.53l51.56-179.76h19.02l-55.69,179.76h-33.09l-39.98-134l12.96-12.41l-43.84,146.4h-33.09L49.14,60.96h57.9
					l34.74,139.23l-20.4,40.53L172.38,60.96z M183.13,81.36l-33.09-4.14V60.96h85.75v16.27l-34.19,4.14H183.13z M279.36,81.36
					l-24.54-4.14V60.96h56.52v16.27l-23.99,4.14H279.36z"/>
			</g>
			<g>
				<path class="st0" d="M80.02,81.36l-39.98-4.14V60.96h89.88v16.27l-39.15,4.14H80.02z M172.38,60.96h35.57l37.5,139.23
					l-19.58,40.53l51.56-179.76h19.02l-55.69,179.76h-33.09l-39.98-134l12.96-12.41l-43.84,146.4h-33.09L49.14,60.96h57.9
					l34.74,139.23l-20.4,40.53L172.38,60.96z M183.13,81.36l-33.09-4.14V60.96h85.75v16.27l-34.19,4.14H183.13z M279.36,81.36
					l-24.54-4.14V60.96h56.52v16.27l-23.99,4.14H279.36z"/>
			</g>
		</g>
		<g>
			<g>
				<path class="st7" d="M44.78,289.71l15.29-1.9h4.04l12.51,1.9v7.46H44.78V289.71z M46.29,214.77h18.58l0.25,9.35h-2.27
					l-16.55-1.9V214.77z M57.29,214.77h7.96l0.88,46.13v36.27h-8.85V214.77z M58.3,214.77h25.4l19.59,55.98h-4.17l18.45-55.98h8.97
					l-27.68,82.4H87.74L58.3,214.77z M110.24,289.71l16.55-1.9h7.08l19.08,1.9v7.46h-42.71V289.71z M119.08,261.65l0.63-46.88h24.77
					c-0.38,13.02-0.38,26.16-0.38,39.18v4.04c0,13.27,0,26.41,0.38,39.18H118.7C119.08,284.15,118.96,271.01,119.08,261.65z
					 M131.59,214.77h20.73v7.46l-18.45,1.9h-2.27V214.77z"/>
				<path class="st7" d="M182.9,261.15c5.18-1.39,14.53-3.79,20.35-5.31v5.56c-6.07,1.64-12.64,3.29-16.3,5.06
					c-3.54,1.64-8.21,5.69-8.21,12.51c0,6.19,2.91,9.23,6.57,9.23c1.64,0,3.41-0.76,5.94-2.65l6.07-4.55l1.14,1.52l-5.94,6.57
					c-5.56,6.07-9.35,10.11-19.08,10.11c-9.98,0-16.43-5.94-16.43-16.3C156.99,273.15,162.43,266.58,182.9,261.15z M190.61,287.31
					v-32.73c0-10.74-1.64-14.15-9.6-14.15c-3.16,0-6.19,0.38-12.01,1.64l10.11-5.31v7.96c0,10.24-4.93,14.15-10.36,14.15
					c-4.93,0-8.34-2.27-9.6-6.82c0-10.87,10.49-18.45,30.83-18.45c17.44,0,23.88,7.2,23.88,24.52v28.94c0,1.26,0.76,2.15,2.15,2.15
					c1.01,0,1.9-0.51,3.41-2.78l3.66,2.02c-3.03,7.71-7.96,10.74-16.93,10.74C196.93,299.19,192.12,294.89,190.61,287.31z"/>
				<path class="st7" d="M253.79,206.05l2.15,1.39l-0.51,17.57v45.62c0,8.85,0.13,17.69,0.38,26.54h-24.77
					c0.25-8.85,0.38-17.69,0.38-26.54v-51.94l-6.82-1.26v-5.69L253.79,206.05z M261.38,290.72v6.44h-35.89v-6.44l11.25-2.53h12.26
					L261.38,290.72z"/>
				<path class="st7" d="M296,206.05l2.15,1.39l-0.51,17.57v45.62c0,8.85,0.13,17.69,0.38,26.54h-24.77
					c0.25-8.85,0.38-17.69,0.38-26.54v-51.94l-6.82-1.26v-5.69L296,206.05z M303.58,290.72v6.44h-35.89v-6.44l11.25-2.53h12.26
					L303.58,290.72z"/>
			</g>
			<g>
				<path class="st2" d="M44.78,289.71l15.29-1.9h4.04l12.51,1.9v7.46H44.78V289.71z M46.29,214.77h18.58l0.25,9.35h-2.27
					l-16.55-1.9V214.77z M57.29,214.77h7.96l0.88,46.13v36.27h-8.85V214.77z M58.3,214.77h25.4l19.59,55.98h-4.17l18.45-55.98h8.97
					l-27.68,82.4H87.74L58.3,214.77z M110.24,289.71l16.55-1.9h7.08l19.08,1.9v7.46h-42.71V289.71z M119.08,261.65l0.63-46.88h24.77
					c-0.38,13.02-0.38,26.16-0.38,39.18v4.04c0,13.27,0,26.41,0.38,39.18H118.7C119.08,284.15,118.96,271.01,119.08,261.65z
					 M131.59,214.77h20.73v7.46l-18.45,1.9h-2.27V214.77z"/>
				<path class="st2" d="M182.9,261.15c5.18-1.39,14.53-3.79,20.35-5.31v5.56c-6.07,1.64-12.64,3.29-16.3,5.06
					c-3.54,1.64-8.21,5.69-8.21,12.51c0,6.19,2.91,9.23,6.57,9.23c1.64,0,3.41-0.76,5.94-2.65l6.07-4.55l1.14,1.52l-5.94,6.57
					c-5.56,6.07-9.35,10.11-19.08,10.11c-9.98,0-16.43-5.94-16.43-16.3C156.99,273.15,162.43,266.58,182.9,261.15z M190.61,287.31
					v-32.73c0-10.74-1.64-14.15-9.6-14.15c-3.16,0-6.19,0.38-12.01,1.64l10.11-5.31v7.96c0,10.24-4.93,14.15-10.36,14.15
					c-4.93,0-8.34-2.27-9.6-6.82c0-10.87,10.49-18.45,30.83-18.45c17.44,0,23.88,7.2,23.88,24.52v28.94c0,1.26,0.76,2.15,2.15,2.15
					c1.01,0,1.9-0.51,3.41-2.78l3.66,2.02c-3.03,7.71-7.96,10.74-16.93,10.74C196.93,299.19,192.12,294.89,190.61,287.31z"/>
				<path class="st2" d="M253.79,206.05l2.15,1.39l-0.51,17.57v45.62c0,8.85,0.13,17.69,0.38,26.54h-24.77
					c0.25-8.85,0.38-17.69,0.38-26.54v-51.94l-6.82-1.26v-5.69L253.79,206.05z M261.38,290.72v6.44h-35.89v-6.44l11.25-2.53h12.26
					L261.38,290.72z"/>
				<path class="st2" d="M296,206.05l2.15,1.39l-0.51,17.57v45.62c0,8.85,0.13,17.69,0.38,26.54h-24.77
					c0.25-8.85,0.38-17.69,0.38-26.54v-51.94l-6.82-1.26v-5.69L296,206.05z M303.58,290.72v6.44h-35.89v-6.44l11.25-2.53h12.26
					L303.58,290.72z"/>
			</g>
		</g>
	</g>
</g>
</svg>
